<?xml version="1.0" standalone="no"?><!DOCTYPE svg PUBLIC "-//W3C//DTD SVG 1.1//EN" "http://www.w3.org/Graphics/SVG/1.1/DTD/svg11.dtd"><svg t="1535531102200" class="icon" style="" viewBox="0 0 1024 1024" version="1.1" xmlns="http://www.w3.org/2000/svg" p-id="2586" xmlns:xlink="http://www.w3.org/1999/xlink" width="200" height="200"><defs><style type="text/css"></style></defs><path d="M59.946667 320.896l434.816 237.525333a32.042667 32.042667 0 0 0 14.848 2.517334 31.36 31.36 0 0 0 14.848-2.517334l439.68-237.397333c9.856-4.906667 14.848-14.848 14.848-27.221333a32.810667 32.810667 0 0 0-14.848-24.746667L529.322667 46.421333a26.538667 26.538667 0 0 0-27.178667 0L62.421333 269.013333a35.541333 35.541333 0 0 0-17.237333 24.746667c0 12.330667 4.906667 22.229333 14.762667 27.136z m456.96-215.125333l372.906666 190.421333-375.424 202.752L136.533333 296.192l380.373334-190.421333zM45.184 508.885333a35.626667 35.626667 0 0 1 17.237333-24.832l91.392-46.933333 61.781334 34.730667-79.061334 39.594666 377.941334 202.794667 375.424-202.794667-74.069334-37.205333 61.738667-34.688 86.485333 44.501333a29.866667 29.866667 0 0 1 17.237334 24.746667c0 12.373333-4.906667 22.272-14.848 27.264L524.373333 773.504a32.341333 32.341333 0 0 1-14.890666 2.517333 30.848 30.848 0 0 1-14.848-2.517333L59.989333 536.064c-9.898667-4.949333-17.322667-17.28-14.805333-27.178667z m931.157333 205.269334c0 12.416-4.906667 22.229333-14.848 27.221333L521.813333 978.730667a32.597333 32.597333 0 0 1-14.848 2.517333 31.445333 31.445333 0 0 1-14.805333-2.517333L57.514667 741.376c-9.898667-4.992-14.848-17.322667-14.848-27.306667a35.754667 35.754667 0 0 1 17.28-24.661333l86.442666-39.594667 61.781334 34.645334-71.637334 32.128 377.941334 205.354666 375.424-202.752-69.162667-34.688 61.738667-34.688 81.578666 39.594667c9.813333 4.992 17.237333 14.848 12.288 24.746667z" p-id="2587"></path></svg>