<?xml version="1.0" standalone="no"?><!DOCTYPE svg PUBLIC "-//W3C//DTD SVG 1.1//EN" "http://www.w3.org/Graphics/SVG/1.1/DTD/svg11.dtd"><svg t="1535593508317" class="icon" style="" viewBox="0 0 1024 1024" version="1.1" xmlns="http://www.w3.org/2000/svg" p-id="1382" xmlns:xlink="http://www.w3.org/1999/xlink" width="200" height="200"><defs><style type="text/css"></style></defs><path d="M625.3 958.5l-60.2-0.1V623h391.3v55.9s-33.6 236.7-331.1 279.6zM621 678.9v223.7h0.3c220-33.4 269.3-185.8 278.2-223.7H621zM894.9 567H509.2V958.4h-55.9v-3.9c-91.4-11.4-173.2-51.5-238.9-109.4l-1.7 1.7-39.2-39.2 0.7-0.6C104.4 728.2 61.9 624.7 61.9 511.1c0-247 200.2-447.3 447.2-447.3S956.3 264 956.3 511.1V567h-61.4zM453.3 896.8V606.2L254.1 805.4c55.3 47.5 123.4 80.5 199.2 91.4z m55.9-777c-216.1 0-391.3 175.2-391.3 391.3 0 98.6 36.6 188.3 97 256.7l266.4-256.7 1.7 2.4 1.3-2.4h24.9v-0.1h391.3c0-216-175.2-391.2-391.3-391.2z" p-id="1383"></path></svg>