<?xml version="1.0" standalone="no"?><!DOCTYPE svg PUBLIC "-//W3C//DTD SVG 1.1//EN" "http://www.w3.org/Graphics/SVG/1.1/DTD/svg11.dtd"><svg t="1535531079736" class="icon" style="" viewBox="0 0 1024 1024" version="1.1" xmlns="http://www.w3.org/2000/svg" p-id="1917" xmlns:xlink="http://www.w3.org/1999/xlink" width="200" height="200"><defs><style type="text/css"></style></defs><path d="M961.373 770.398c0 43.2-35.005 78.21-78.205 78.21L140 848.608c-43.2 0-78.207-35.01-78.207-78.21L61.793 561.119c-1.247-5.47 0.063-12.095 4.64-19.33l192.895-324.989c11.487-18.207 38.497-33.087 60-33.087l402.751 0c21.505 0 47.935 15.232 58.72 33.855l175.935 323.422c2.945 5.12 4.32 9.92 4.45 14.275l0.225 0 0 215.134L961.373 770.399zM100.895 535.709 100.895 535.709l0 19.555 0 0L100.895 535.709 100.895 535.709zM100.895 770.398c0 21.6 17.505 39.105 39.105 39.105l743.133 0c21.6 0 39.105-17.505 39.105-39.105l0-195.55L687.548 574.848l0 78.205c0 21.6-17.5 39.105-39.1 39.105L374.654 692.158c-21.6 0-39.102-17.505-39.102-39.105l0-78.205L100.895 574.848 100.895 770.398 100.895 770.398zM648.478 633.503l0-39.105 0-19.55 0-39.105L374.687 535.743l0 39.105 0 19.55 0 39.105c0 10.815 8.737 19.55 19.552 19.55l234.689 0C639.708 653.053 648.478 644.318 648.478 633.503L648.478 633.503zM758.208 256.704c-10.785-18.625-37.22-33.857-58.72-33.857L340.894 222.847c-21.502 0-48.51 14.88-60 33.087l-159.07 279.614 581.823 0.195 3.52 0 197.309 0L758.208 256.704 758.208 256.704zM257.344 457.504c0-10.817 8.735-19.552 19.55-19.552l469.344 0c10.815 0 19.55 8.735 19.55 19.552 0 10.815-8.735 19.55-19.55 19.55L276.894 477.054C266.079 477.054 257.344 468.319 257.344 457.504L257.344 457.504zM707.133 398.846 316.032 398.846c-10.817 0-19.552-8.735-19.552-19.552 0-10.815 8.735-19.55 19.552-19.55l391.137 0c10.815 0 19.55 8.735 19.55 19.55C726.688 390.079 717.948 398.846 707.133 398.846L707.133 398.846zM668.028 320.607 355.134 320.607c-10.815 0-19.55-8.735-19.55-19.552 0-10.782 8.735-19.55 19.55-19.55l312.894 0c10.82 0 19.555 8.767 19.555 19.55C687.583 311.872 678.848 320.607 668.028 320.607L668.028 320.607z" p-id="1918"></path></svg>