<?xml version="1.0" standalone="no"?><!DOCTYPE svg PUBLIC "-//W3C//DTD SVG 1.1//EN" "http://www.w3.org/Graphics/SVG/1.1/DTD/svg11.dtd"><svg t="1535517460637" class="icon" style="" viewBox="0 0 1024 1024" version="1.1" xmlns="http://www.w3.org/2000/svg" p-id="5672" xmlns:xlink="http://www.w3.org/1999/xlink" width="200" height="200"><defs><style type="text/css"></style></defs><path d="M438.857143 405.942857l-117.028572 303.542857h47.542858l29.257142-76.8h128l29.257143 76.8h51.2l-117.028571-303.542857H438.857143z m-25.6 190.171429l51.2-142.628572 51.2 142.628572h-102.4zM658.285714 0h-292.571428C164.571429 0 0 164.571429 0 365.714286v292.571428c0 201.142857 164.571429 365.714286 365.714286 365.714286h292.571428c201.142857 0 365.714286-164.571429 365.714286-365.714286v-292.571428c0-201.142857-164.571429-365.714286-365.714286-365.714286z m54.857143 753.371429c0 29.257143-21.942857 51.2-51.2 51.2H270.628571c-29.257143 0-51.2-21.942857-51.2-51.2V365.714286c0-29.257143 21.942857-51.2 51.2-51.2H658.285714c29.257143 0 51.2 21.942857 51.2 51.2v387.657143z m91.428572-32.914286c0 18.285714-10.971429 29.257143-25.6 29.257143-14.628571 0-25.6-14.628571-25.6-29.257143V266.971429H303.542857c-18.285714 0-29.257143-10.971429-29.257143-21.942858 0-14.628571 10.971429-25.6 29.257143-25.6h438.857143c32.914286 0 62.171429 29.257143 62.171429 62.171429v438.857143z" p-id="5673" fill=""></path></svg>