<?xml version="1.0" standalone="no"?><!DOCTYPE svg PUBLIC "-//W3C//DTD SVG 1.1//EN" "http://www.w3.org/Graphics/SVG/1.1/DTD/svg11.dtd"><svg t="1535523991595" class="icon" style="" viewBox="0 0 1024 1024" version="1.1" xmlns="http://www.w3.org/2000/svg" p-id="5459" xmlns:xlink="http://www.w3.org/1999/xlink" width="200" height="200"><defs><style type="text/css"></style></defs><path d="M952.7 495.5L767.8 310.6c-9.1-9.1-23.8-9.1-32.8 0L697.6 348c-9.1 9.1-9.1 23.8 0 32.8l81.6 81.6H407.3c-12.8 0-23.2 10.4-23.2 23.2v52.9c0 12.8 10.4 23.2 23.2 23.2H779l-81.6 81.6c-9.1 9.1-9.1 23.8 0 32.8l37.4 37.4c9.1 9.1 23.8 9.1 32.8 0l147.7-147.7 37.4-37.4c9.1-9.1 9.1-23.8 0-32.9zM634.1 64.8h-500c-38.5 0-69.6 31.2-69.6 69.6v755.1c0 38.5 31.2 69.6 69.6 69.6h500c38.5 0 69.6-31.2 69.6-69.6v-98c0-12.8-10.4-23.2-23.2-23.2h-50.3c-12.8 0-23.2 10.4-23.2 23.2v37.3c0 34.3 0 34.3-34.8 34.3H195.1c-34.8 0-34.8 0-34.8-34.8V194.8c0-34.9-0.1-34.8 34.8-34.8h377.1c34.8 0 34.8 0.3 34.8 34.3v38.4c0 12.8 10.4 23.2 23.2 23.2h50.3c12.8 0 23.2-10.4 23.2-23.2v-98.3c0.1-38.4-31.1-69.6-69.6-69.6z" p-id="5460"></path></svg>