<?xml version="1.0" standalone="no"?><!DOCTYPE svg PUBLIC "-//W3C//DTD SVG 1.1//EN" "http://www.w3.org/Graphics/SVG/1.1/DTD/svg11.dtd"><svg t="1535600068894" class="icon" style="" viewBox="0 0 1024 1024" version="1.1" xmlns="http://www.w3.org/2000/svg" p-id="8357" xmlns:xlink="http://www.w3.org/1999/xlink" width="200" height="200"><defs><style type="text/css"></style></defs><path d="M53.709804 277.584314h915.576471c27.942484 0 44.67451-16.732026 44.674509-44.67451s-16.732026-44.67451-44.674509-44.67451H53.709804c-27.942484 0-44.67451 16.732026-44.67451 44.67451s16.564706 44.67451 44.67451 44.67451zM969.286275 470.002614H53.709804c-27.942484 0-44.67451 16.732026-44.67451 44.67451s16.732026 44.67451 44.67451 44.67451h915.576471c27.942484 0 44.67451-16.732026 44.674509-44.67451s-16.732026-44.67451-44.674509-44.67451zM969.286275 751.602614H53.709804c-27.942484 0-44.67451 16.732026-44.67451 44.67451s16.732026 44.67451 44.67451 44.67451h915.576471c27.942484 0 44.67451-16.732026 44.674509-44.67451s-16.732026-44.67451-44.674509-44.67451z" fill="" p-id="8358"></path></svg>