<?xml version="1.0" standalone="no"?><!DOCTYPE svg PUBLIC "-//W3C//DTD SVG 1.1//EN" "http://www.w3.org/Graphics/SVG/1.1/DTD/svg11.dtd"><svg t="1536666665653" class="icon" style="" viewBox="0 0 1024 1024" version="1.1" xmlns="http://www.w3.org/2000/svg" p-id="6271" xmlns:xlink="http://www.w3.org/1999/xlink" width="200" height="200"><defs><style type="text/css"></style></defs><path d="M576 160V0L32 105.408v781.12L576 992v-256h320v64H576l3.328 63.52h380.64V160.352L576 160z m-88.672 450.368a171.008 171.008 0 0 1-99.2-40.256c-54.976 12.064-107.264 29.536-159.52 50.976-41.568 73.76-80.448 111.296-113.984 111.296-6.688 0-14.752-1.344-20.096-5.376a39.456 39.456 0 0 1-22.784-36.192c0-12.064 2.688-45.6 130.048-100.576 29.504-53.632 52.288-108.608 71.072-166.24-16.096-32.16-50.944-111.296-26.816-151.488 8.032-14.72 24.128-22.784 41.568-21.44 13.696 0.128 26.56 6.56 34.848 17.408 17.408 24.16 16.096 75.104-6.688 150.176a403.328 403.328 0 0 0 83.136 107.232c28.16-5.312 56.32-9.376 84.48-9.376 62.976 1.376 72.352 30.848 71.04 48.288-0.064 45.568-44.288 45.568-67.104 45.568zM896 544l-316.672 4.704L576 608h320v64H576v-192h320v64z m0-128H576v-64h320v64z m0-128H576V224h320v64z m-605.728 3.264h-4.032c-1.344 0-4 0-5.344 1.344-5.344 22.784-1.344 46.912 8.032 68.352a112.832 112.832 0 0 0 1.344-69.696z m-178.336 402.24l4.032-1.344c18.752-6.72 33.536-20.096 44.224-37.536a106.24 106.24 0 0 0-48.256 38.88z m187.712-207.808l-1.344 2.656-1.344-1.344a1100.672 1100.672 0 0 1-40.224 91.168l2.656-1.344v2.688a785.152 785.152 0 0 1 91.168-26.816l-1.344-1.344h4.032a412.416 412.416 0 0 1-53.6-65.664z m182.336 71.04c-12.064 0-22.784 0-34.848 2.688 13.408 6.688 26.816 9.376 40.224 10.688 9.376 1.376 18.752 0 26.816-2.656-0.032-4.032-5.376-10.72-32.192-10.72z" fill="#E94F4F" p-id="6272"></path></svg>