<?xml version="1.0" standalone="no"?><!DOCTYPE svg PUBLIC "-//W3C//DTD SVG 1.1//EN" "http://www.w3.org/Graphics/SVG/1.1/DTD/svg11.dtd"><svg t="1535523903829" class="icon" style="" viewBox="0 0 1291 1024" version="1.1" xmlns="http://www.w3.org/2000/svg" p-id="2558" xmlns:xlink="http://www.w3.org/1999/xlink" width="252.1484375" height="200"><defs><style type="text/css"></style></defs><path d="M60.04337 241.845914L260.615335 34.163163C293.553513 0.045479 306.453272 0.045479 313.355736 0.045479h152.132952c39.14086 0 47.555851 2.564401 56.030991 11.420974l8.881513 9.148515-0.437181 12.907095c0 29.311633 11.095289 54.717983 32.063817 73.277616 20.76314 18.412928 50.467943 28.523828 83.522017 28.523828 68.027049 0 115.525685-41.810888 115.525685-101.713421v-11.916837l8.357777-10.138773 0.029341-0.117364C778.053685 2.582006 786.38212 0.016138 825.52298 0.016138h152.10361c6.900997 0 19.890246 0 52.740401 34.147025l200.834568 207.932149-250.85506 233.928252-9.271748-9.600366-0.117364 492.862349c0 35.662487-29.034361 64.623496-64.592688 64.623496l-521.776412 0.029341c-35.674223 0-64.592688-28.961009-64.592688-64.623496V466.452539l-9.059026 9.355369L60.04337 241.845914z m-30.196264 31.268676l250.847725 233.920917-15.098865 15.590327c-11.707049 12.091415-28.685203 18.998281-46.594934 18.998281-17.297971 0-33.111289-6.177742-44.700975-17.337582L20.591496 375.69357c-12.405364-11.91537-19.365043-28.027966-19.629112-45.36408-0.31835-17.248092 6.088252-33.535266 18.056435-46.006648l10.82682-11.208252z m1231.55365 0.247931l10.559817 10.932447c11.912436 12.381891 18.376252 28.727748 18.056436 46.006648-0.349158 17.363989-7.280963 33.447244-19.629112 45.421295L1116.683736 524.229318c-12.028332 11.654235-27.928206 18.093112-44.847679 18.093112-17.47255 0-34.39349-7.138659-46.420355-19.637914l-14.870006-15.395209 250.85506-233.926786z" p-id="2559"></path></svg>